<svg width="1727" height="392" viewBox="0 0 1727 392" fill="none" xmlns="http://www.w3.org/2000/svg">
<g clip-path="url(#clip0_2340_38)">
<path d="M1335.72 98.3646C1336.19 98.3646 1337.34 98.4227 1338.53 99.0403C1339.81 99.7119 1340.97 100.975 1341.35 103.004H1341.35C1341.59 104.2 1347.43 128.933 1352.19 156.827C1354.57 170.784 1356.7 185.594 1357.73 198.725C1358.76 211.76 1358.74 223.457 1356.65 231.008L1356.65 231.026L1356.64 231.044C1351.55 248.339 1341.82 257.402 1331.77 265.122C1321.67 272.876 1311.69 279.027 1304.7 290.746L1304.66 290.815L1304.61 290.88C1301.37 295.553 1299.38 303.376 1298.26 313.902C1297.14 324.335 1296.89 337.016 1296.83 351.11L1292.2 351.09C1292.26 337.004 1292.51 324.105 1293.65 313.409C1294.78 302.849 1296.83 294.021 1300.76 288.312C1308.33 275.661 1319.3 268.857 1328.95 261.45C1338.66 253.997 1347.5 245.68 1352.2 229.736C1354.04 223.043 1354.14 212.094 1353.12 199.088C1352.1 186.155 1350 171.498 1347.63 157.607C1342.88 129.807 1337.1 105.32 1336.81 103.936L1336.8 103.899L1336.8 103.862C1336.74 103.539 1336.65 103.387 1336.6 103.321C1336.55 103.25 1336.48 103.194 1336.38 103.145C1336.15 103.023 1335.85 102.995 1335.72 102.995H1242.68C1242.56 102.995 1242.26 103.022 1242.01 103.15C1241.91 103.202 1241.83 103.264 1241.77 103.344C1241.71 103.42 1241.62 103.581 1241.55 103.906C1241.41 104.686 1239.88 111.278 1237.85 120.864C1235.79 130.64 1233.16 143.722 1230.79 157.606C1228.43 171.497 1226.33 186.154 1225.31 199.088C1224.29 212.112 1224.39 223.073 1226.25 229.763C1230.91 245.685 1239.75 253.996 1249.46 261.446C1259.11 268.853 1270.1 275.661 1277.67 288.312C1281.61 294.024 1283.64 302.855 1284.76 313.412C1285.88 324.109 1286.11 337.008 1286.16 351.092L1281.53 351.109C1281.48 337.013 1281.25 324.331 1280.15 313.898C1279.04 303.371 1277.07 295.553 1273.82 290.883L1273.77 290.817L1273.73 290.746C1266.74 279.027 1256.75 272.875 1246.64 265.119C1236.57 257.398 1226.85 248.333 1221.8 231.039L1221.79 231.024L1221.79 231.009C1219.69 223.458 1219.67 211.76 1220.7 198.725C1221.73 185.594 1223.85 170.785 1226.23 156.828C1228.61 142.865 1231.25 129.719 1233.32 119.906C1234.36 114.998 1235.25 110.922 1235.91 107.993C1236.23 106.53 1236.5 105.351 1236.69 104.503C1236.78 104.078 1236.86 103.737 1236.91 103.485C1236.94 103.359 1236.96 103.258 1236.98 103.181C1236.98 103.143 1236.99 103.112 1237 103.089L1237 103.045L1237.01 103.034C1237.4 100.982 1238.58 99.7159 1239.87 99.0433C1241.05 98.4282 1242.2 98.3646 1242.68 98.3646H1335.72Z" fill="#50B848"/>
<path d="M1716.86 154.635C1718.94 154.635 1720.6 154.674 1721.87 154.783C1723.05 154.884 1724.24 155.063 1725.15 155.549C1725.66 155.821 1726.25 156.277 1726.6 157.026C1726.96 157.79 1726.93 158.539 1726.79 159.101C1726.57 160.051 1725.94 160.934 1725.5 161.525L1725.47 161.564L1635.49 278.164L1635.47 278.194L1635.45 278.223C1632.82 281.41 1630.05 283.471 1628.25 285.06C1626.4 286.698 1625.54 287.834 1625.34 289.519L1625.33 289.615L1625.31 289.709C1623.92 296.567 1622.74 312.688 1622.44 353.297L1617.82 353.263C1618.1 312.926 1619.27 296.3 1620.75 288.876C1621.18 285.493 1623.14 283.403 1625.19 281.592C1627.31 279.718 1629.54 278.098 1631.86 275.299L1721.31 159.385C1720.25 159.303 1718.81 159.265 1716.86 159.265H1510.79C1508.86 159.265 1507.42 159.304 1506.37 159.386L1595.83 275.3C1598.18 278.102 1600.41 279.715 1602.52 281.591C1604.57 283.406 1606.49 285.494 1606.91 288.869C1608.41 296.297 1609.62 313.46 1609.86 353.815L1605.23 353.845C1604.98 313.227 1603.76 296.567 1602.36 289.712L1602.34 289.611L1602.33 289.51C1602.14 287.817 1601.29 286.683 1599.45 285.055C1597.67 283.472 1594.9 281.411 1592.25 278.232L1592.22 278.199L1502.21 161.564L1502.17 161.515C1501.74 160.921 1501.11 160.035 1500.9 159.079C1500.77 158.513 1500.75 157.768 1501.11 157.013C1501.46 156.273 1502.04 155.82 1502.55 155.549C1503.46 155.064 1504.65 154.885 1505.82 154.784C1507.08 154.675 1508.73 154.635 1510.79 154.635H1716.86Z" fill="#50B848"/>
<path d="M1462.43 0.68457C1465 0.684603 1469.07 1.70921 1472.53 4.70508C1476.09 7.78241 1478.84 12.7904 1478.84 20.3896V21.7109L1477.7 22.3828L1477.7 22.3848C1477.7 22.3852 1477.69 22.3852 1477.69 22.3857C1477.69 22.3871 1477.69 22.3888 1477.68 22.3906C1477.68 22.3944 1477.67 22.3996 1477.66 22.4053C1477.64 22.4168 1477.61 22.4325 1477.58 22.4512C1477.51 22.4883 1477.42 22.5391 1477.31 22.5986C1477.09 22.7169 1476.78 22.8754 1476.42 23.0361C1476.38 23.0564 1476.33 23.0745 1476.28 23.0967C1476.39 23.692 1476.53 24.3993 1476.67 25.2041C1477.07 27.5184 1477.55 30.648 1477.91 34.2549L1478.06 35.8291L1478.06 35.8359C1478.42 40.1208 1478.19 42.9756 1477.56 45.0518C1477.06 46.6509 1476.35 47.6898 1475.7 48.4561L1482.9 160.432L1482.9 160.506V160.58C1482.9 160.583 1482.91 160.614 1482.91 160.687C1482.91 160.759 1482.91 160.857 1482.92 160.979C1482.93 161.224 1482.94 161.558 1482.96 161.97C1482.99 162.793 1483.05 163.923 1483.12 165.269C1483.26 167.961 1483.47 171.514 1483.74 175.22C1484.01 178.93 1484.34 182.775 1484.72 186.061C1485.1 189.414 1485.52 191.978 1485.93 193.258L1486.01 193.516C1486.51 194.9 1487.87 197.678 1489.85 201.428C1491.91 205.342 1494.53 210.101 1497.23 214.985C1502.24 224.064 1507.58 233.699 1509.93 238.824L1510.36 239.788L1510.37 239.808L1510.37 239.828C1512.5 245.045 1513.66 252.778 1514.26 259.545H1514.48V262.265C1514.49 262.392 1514.5 262.523 1514.51 262.668C1514.53 262.827 1514.54 263.007 1514.55 263.186L1514.7 265.645H1514.48V353.83H1509.85V262.477L1509.82 262.033C1509.28 254.844 1508.14 246.64 1506.09 241.595C1504.15 237.059 1498.59 227.048 1493.17 217.223C1490.48 212.345 1487.84 207.547 1485.75 203.587C1483.71 199.713 1482.07 196.415 1481.51 194.662L1481.51 194.659C1480.95 192.893 1480.5 189.897 1480.12 186.591C1479.73 183.214 1479.39 179.296 1479.12 175.556C1478.61 168.46 1478.31 161.857 1478.28 160.709L1470.96 46.7754L1471.64 46.043C1472.31 45.3391 1472.78 44.8365 1473.13 43.6934C1473.52 42.4296 1473.78 40.2495 1473.44 36.2246C1473.08 32.118 1472.55 28.5445 1472.11 26.001C1471.88 24.7295 1471.68 23.7174 1471.54 23.0273C1471.47 22.6825 1471.41 22.4181 1471.37 22.2422C1471.35 22.1544 1471.34 22.0886 1471.33 22.0459C1471.32 22.0245 1471.32 22.0087 1471.32 21.999C1471.32 21.9943 1471.32 21.9911 1471.32 21.9893L1470.65 19.1445H1473.57C1473.53 19.1445 1473.61 19.1473 1473.84 19.0781C1473.94 19.0471 1474.05 19.0079 1474.16 18.9639C1473.86 13.4603 1471.77 10.1683 1469.51 8.20703C1466.95 6.00065 1463.98 5.31547 1462.43 5.31543H1428.46C1426.94 5.31543 1423.96 5.99886 1421.39 8.20996C1419.13 10.159 1417.05 13.4165 1416.71 18.8398L1419.74 20.0488L1419.28 21.9883C1419.28 21.9901 1419.28 21.9944 1419.28 21.999C1419.28 22.0087 1419.28 22.0247 1419.27 22.0459C1419.26 22.0887 1419.25 22.1551 1419.23 22.2432C1419.19 22.4192 1419.13 22.6835 1419.06 23.0283C1418.91 23.7186 1418.72 24.7312 1418.49 26.0029C1418.04 28.5488 1417.5 32.1253 1417.14 36.2363V36.2383C1416.77 40.2542 1417.05 42.4198 1417.45 43.668C1417.81 44.8013 1418.3 45.3024 1418.99 46.0205L1419.71 46.7568L1412.33 160.711C1412.3 161.865 1411.99 168.467 1411.48 175.557C1411.2 179.296 1410.87 183.214 1410.48 186.59C1410.13 189.69 1409.71 192.512 1409.2 194.305L1409.1 194.649C1408.55 196.411 1406.91 199.715 1404.87 203.588C1402.79 207.549 1400.14 212.349 1397.45 217.227C1392.02 227.068 1386.45 237.088 1384.53 241.607L1384.53 241.609C1382.42 246.553 1381.32 254.758 1380.8 261.938V353.82H1376.16V261.776L1376.17 261.693C1376.69 254.514 1377.81 245.546 1380.27 239.79C1382.32 234.988 1388.05 224.67 1393.4 214.988C1396.09 210.104 1398.71 205.344 1400.78 201.43C1402.88 197.427 1404.28 194.539 1404.68 193.271C1405.08 191.987 1405.5 189.417 1405.88 186.062C1406.26 182.775 1406.59 178.929 1406.86 175.219C1407.13 171.512 1407.34 167.959 1407.49 165.267C1407.56 163.921 1407.61 162.791 1407.65 161.968C1407.67 161.556 1407.68 161.222 1407.69 160.978C1407.7 160.855 1407.7 160.757 1407.7 160.685C1407.7 160.614 1407.7 160.584 1407.7 160.58V160.505L1407.71 160.431L1414.95 48.4766C1414.29 47.7157 1413.55 46.6758 1413.04 45.0771C1412.37 42.9855 1412.14 40.1159 1412.52 35.8223C1412.91 31.5538 1413.47 27.8451 1413.93 25.2012C1414.09 24.3015 1414.24 23.5244 1414.36 22.8887L1412.03 21.958V20.3896C1412.03 12.7839 1414.8 7.77649 1418.37 4.70215C1421.84 1.71077 1425.92 0.68457 1428.46 0.68457H1462.43Z" fill="#50B848"/>
<path d="M1675.47 350.365V357.295H1199.83V350.365H1675.47Z" fill="#50B848"/>
<path d="M32.47 323.05V197.96H9.52999C9.52999 197.96 4.88999 197.96 2.62999 200.46C0.23999 202.84 0.23999 205.8 0.23999 205.8V353.83H79.85V323.04H32.48L32.47 323.05Z" fill="#50B848"/>
<path d="M127.48 236.08H96.1399V353.84H127.48V236.08Z" fill="#50B848"/>
<path d="M238.29 236.08V247.92C229.73 237.2 216.88 232.37 203.64 232.37C187.47 232.51 170.47 239.53 159.46 251.69C148.68 262.66 142.04 277.89 141.99 294.08C142.07 327.18 166.76 357.53 202.26 357.59C215.53 357.59 227.28 353.2 235.99 343.98V392H267.56V236.07H238.29V236.08ZM237.43 295.08C237.43 312.32 223.89 327.3 206.08 327.3C186.63 327.3 173.47 313.63 173.41 294.69C173.44 276.38 187.46 262.85 206.08 262.78C223.45 262.78 237.4 278.08 237.43 295.07" fill="#50B848"/>
<path d="M361.14 236.08V294.08C361.14 302.09 360.38 310.62 357.22 316.9C354.03 323.09 348.86 327.24 338.75 327.29C330.77 327.29 323.89 323.35 320.45 316.5C317.35 310.48 317.04 301.01 317.04 294.07V236.07H285.66V302.47C285.66 317.07 286.32 329.81 297.23 341.15C307.22 352.18 320.96 357.59 335.25 357.59H335.37C346.7 357.59 356.84 353.83 363.47 345.23V353.82H392.75V236.07H361.14V236.08Z" fill="#50B848"/>
<path d="M603.79 231.88C592.54 231.93 584.1 235.89 578.2 243.22V236.08H549.39V353.83H580.79V290.57C580.7 289.37 580.7 288.24 580.7 287.19C580.74 279.15 581.66 272.82 588.07 267.62C592.2 264.42 598.16 262.54 603.99 262.48C603.99 262.48 608.75 262.41 613.39 262.6V232.06C609.1 231.69 603.8 231.89 603.8 231.89" fill="#50B848"/>
<path d="M659.94 323.05V197.96H636.96C636.96 197.96 632.39 197.96 630.03 200.46C627.68 202.84 627.68 205.72 627.68 205.72V353.83H707.31V323.04H659.94V323.05Z" fill="#50B848"/>
<path d="M809.95 236.08V249.12C800.55 238.26 787.44 232.37 772.71 232.37C755.27 232.37 740.1 239.09 728.14 252.95C717.17 265.17 712.85 278.95 712.88 295.13C712.88 311.32 718.19 326.5 727.77 337.76C738.11 349.95 753.29 357.59 771.84 357.59C785.63 357.53 800.62 351.38 809.96 341.08V353.82H839.21V236.07H809.96L809.95 236.08ZM777.69 262.79C796.22 262.79 809 276.65 809.07 294.9C808.99 313.45 796.22 327.31 777.25 327.31H776.42C758.71 327.31 744.25 313.76 744.25 296.16C744.29 277.1 757.47 262.87 776.86 262.79H777.69Z" fill="#50B848"/>
<path d="M954.13 250.87C952.91 249.44 951.9 248.37 950.87 247.25C942.05 237.9 929.09 232.37 916.38 232.37C905.25 232.37 893.72 236.27 886.07 244.03V236.07H856.78V353.82H888.13V296.31C888.11 287.99 888.57 278.14 892.46 272.12C895.85 266.53 903.56 262.71 910.54 262.77C917.04 262.77 923.99 266.1 927.51 271.49C931.97 278.39 932.1 289.48 932.1 298.38V353.81H963.69V292.99C963.69 278.38 963.5 263.71 954.14 250.85" fill="#50B848"/>
<path d="M1072.76 197.97V245.44C1064.01 237.04 1051.97 232.38 1040 232.38H1038.56C998.55 233.44 978.29 264.17 978.38 295.53C978.45 327.44 1003.3 357.54 1037.8 357.61C1051.84 357.61 1066.07 352.08 1075.04 341.37V353.85H1104.38V197.98H1072.76V197.97ZM1074.63 294.89C1074.63 312.76 1060.32 327.3 1042 327.3C1023.68 327.3 1009.8 312.32 1009.76 294.27C1009.79 277.77 1024.75 262.78 1041.56 262.78C1059.73 262.78 1074.6 276.9 1074.62 294.89" fill="#50B848"/>
<path d="M535.73 295.28C535.67 261.22 508.11 232.38 472.99 232.38C437.87 232.38 408.54 260.15 408.54 295.28C408.54 328.32 435.38 355.78 468.43 357.46C468.28 347.44 467.42 338.27 464.72 334.46C458.58 326.12 450.75 324.12 447.42 313.51C444.85 304.48 452.94 268.17 453.11 267.24C453.44 266.12 455.09 266.24 455.09 266.24H489.75C489.75 266.24 491.43 266.12 491.62 267.24C491.85 268.18 499.99 304.48 497.4 313.51C494.08 324.12 486.27 326.12 480.15 334.46C477.39 338.22 476.58 347.31 476.45 357.33C509.37 354.94 535.73 328.48 535.73 295.27" fill="#50B848"/>
</g>
<defs>
<clipPath id="clip0_2340_38">
<rect width="1727" height="392" fill="#50B848"/>
</clipPath>
</defs>
</svg>
