<?xml version="1.0" encoding="UTF-8"?>
<svg id="Layer_1" data-name="Layer 1" xmlns="http://www.w3.org/2000/svg" viewBox="0 0 329.29 108.3">
  <defs>
    <style>
      .cls-1 {
        fill: #1d1d1b;
      }

      .cls-1, .cls-2, .cls-3 {
        stroke-width: 0px;
      }

      .cls-2 {
        fill: #ffd600;
      }

      .cls-3 {
        fill: #fff;
      }
    </style>
  </defs>
  <polygon class="cls-2" points="7.04 6.43 7.04 68.22 322.82 68.22 322.82 6.43 7.04 6.43 7.04 6.43"/>
  <path class="cls-1" d="M0,0v108.3h329.29V0H0ZM321.25,8v58.61H8.04V8"/>
  <path class="cls-1" d="M47.99,21.4h-23.88v31.81h10.02v-7.97s13.86,0,13.86,0c3.79,0,6.87-3.07,6.87-6.87v-10.11c0-3.79-3.08-6.87-6.87-6.87M34.12,37.17v-7.75h9.55c1.29,0,2.33,1.04,2.33,2.33v3.09c0,1.29-1.04,2.33-2.33,2.33h-9.55Z"/>
  <path class="cls-1" d="M216.2,40.51l3.84-10.32h.56l3.77,10.32h-8.16ZM211.47,53.22l2.08-5.61h13.4l2.05,5.61h10.16l-11.58-31.81h-14.52l-11.94,31.81h10.36Z"/>
  <path class="cls-1" d="M131.91,53.22h10.41v-13.68c0-3.13.8-5.45,5.4-5.45,3.35,0,4.24,1.28,4.3,3.82v15.31h10.37v-17.23c0-5.27-3.69-7.88-10.38-7.88-4.14,0-7.4.64-8.98,4.99h-.71v-4.7h-10.41v24.81h0Z"/>
  <polygon class="cls-1" points="94.65 21.41 94.65 53.22 104.67 53.22 104.67 46.41 108.41 42.53 117.72 53.22 130.12 53.22 115.07 35.85 129.44 21.41 116.88 21.41 104.67 34.12 104.67 21.41 94.65 21.41 94.65 21.41"/>
  <polygon class="cls-1" points="253.28 44.44 244.87 21.41 234.72 21.41 246.3 53.22 260.82 53.22 272.77 21.41 262.4 21.41 253.84 44.44 253.28 44.44 253.28 44.44"/>
  <polygon class="cls-1" points="131.89 24.6 138.15 18.34 148.71 18.34 142.34 24.6 131.89 24.6 131.89 24.6"/>
  <polygon class="cls-1" points="304.82 28.79 304.82 21.41 274.3 21.41 274.3 53.22 305.18 53.22 305.18 44.76 284.32 44.76 284.32 40.28 303.73 40.28 303.73 33.25 284.32 33.25 284.32 28.79 304.82 28.79 304.82 28.79"/>
  <path class="cls-1" d="M68.88,40.51l3.84-10.32h.56l3.77,10.32h-8.16ZM64.15,53.22l2.08-5.61h13.4l2.05,5.61h10.16l-11.58-31.81h-14.52l-11.94,31.81h10.36Z"/>
  <path class="cls-1" d="M177.52,30.7c0,1.84.38,2.01,2.14,2.24.56.08,1.25.12,2.1.18l4.31.26c11.53.69,14.39,1.5,14.39,9.68,0,10.5-2.29,10.57-16.89,10.57-3.45,0-6.2,0-8.39-.15-6.89-.48-8.06-2.73-8.13-9.93v-.98s10,0,10,0v.84c.07,2.84.77,3.15,6.52,3.15,6.28,0,6.47-.46,6.47-2.94s-.55-2.72-5.43-2.98l-2.28-.13c-2.92-.18-5.33-.31-7.3-.54-6.08-.7-7.92-2.45-7.92-9.22,0-9.24,2.86-9.84,16.47-9.84s15.8.13,15.8,9.03v1.35h-10c-.04-3.93-2.21-3.29-5.69-3.29-5.61,0-6.15.28-6.15,2.71"/>
  <g>
    <path class="cls-3" d="M33.3,85.44v3.91c0,3.35-1,5.1-4.42,5.1s-4.42-1.75-4.42-5.1v-3.91c0-3.35.99-5.1,4.42-5.1s4.42,1.75,4.42,5.1ZM30.02,90.42v-6c0-1.22-.34-1.82-1.14-1.82s-1.14.59-1.14,1.82v6c0,1.22.36,1.82,1.14,1.82s1.14-.59,1.14-1.82Z"/>
    <path class="cls-3" d="M39.39,80.59h3.28v9.26c0,3.18-.92,4.59-4.11,4.59s-4.11-1.41-4.11-4.59v-9.26h3.28v10.01c0,1,.15,1.55.83,1.55s.83-.54.83-1.55v-10.01Z"/>
    <path class="cls-3" d="M52.05,91.3c0,1.82,0,2.6.25,2.89h-3.03c-.26-.29-.26-1.07-.26-2.89v-1.33c0-1.05-.34-1.55-1.22-1.55h-.8v5.76h-3.15v-13.6h4.45c3.25,0,3.99,1.26,3.99,3.59,0,1.34-.46,2.45-1.43,2.82.99.25,1.17,1.21,1.17,2.16v2.14ZM47,85.79h1.05c.8,0,1.14-.27,1.14-1.43s-.34-1.41-1.14-1.41h-1.05v2.84Z"/>
    <path class="cls-3" d="M66.36,85.3c0,3.11-1.34,4.27-3.57,4.27h-1.82v4.62h-3.15v-13.6h4.11c3.42,0,4.42,1.36,4.42,4.71ZM61.95,87.02c.97,0,1.14-.32,1.14-1.55v-.68c0-1.22-.34-1.82-1.14-1.82h-.97v4.05h.97Z"/>
    <path class="cls-3" d="M76.17,85.44v3.91c0,3.35-1,5.1-4.42,5.1s-4.42-1.75-4.42-5.1v-3.91c0-3.35.99-5.1,4.42-5.1s4.42,1.75,4.42,5.1ZM72.89,90.42v-6c0-1.22-.34-1.82-1.14-1.82s-1.14.59-1.14,1.82v6c0,1.22.36,1.82,1.14,1.82s1.14-.59,1.14-1.82Z"/>
    <path class="cls-3" d="M80.54,91.56h3.4v2.63h-6.63v-13.6h3.23v10.96Z"/>
    <path class="cls-3" d="M84.79,80.59h3.23v13.6h-3.23v-13.6Z"/>
    <path class="cls-3" d="M98,85.81h-3.28v-1.39c0-1.22-.34-1.82-1.14-1.82s-1.14.59-1.14,1.82v6c0,1.22.36,1.82,1.14,1.82s1.12-.42,1.12-2.16l.02-1.34h3.28v1.17c0,2.75-1,4.54-4.42,4.54s-4.42-1.84-4.42-4.93v-4.25c0-3.01.99-4.93,4.42-4.93s4.42,2.09,4.42,4.59v.88Z"/>
  </g>
  <g>
    <path class="cls-3" d="M104.62,80.59h3.06l-3.06,7.75v5.85h-3.23v-5.85l-2.92-7.75h3.09l1.48,4.62,1.58-4.62Z"/>
    <path class="cls-3" d="M111.16,84.82v3.06h-2.8v-3.06h2.8ZM111.16,91.13v3.06h-2.8v-3.06h2.8Z"/>
    <path class="cls-3" d="M122.81,80.59h2.8v13.6h-3.14l-2.89-8.4v8.4h-2.8v-13.6h3.23l2.8,8.16v-8.16Z"/>
    <path class="cls-3" d="M126.55,80.59h7.14v2.89l-3.94,8.07h3.94v2.63h-7.14v-2.8l3.94-8.07h-3.94v-2.72Z"/>
    <path class="cls-3" d="M134.79,80.59h2.72v2.89l-1.21,2.04h-1.17l.59-1.87h-.94v-3.06Z"/>
    <path class="cls-3" d="M147.03,90.42c0,2.19-.75,4.03-4.18,4.03s-4.35-1.61-4.35-4.37v-.73h3.28l.02.9c0,1.56.27,1.99,1.05,1.99s.9-.59.9-1.48c0-1.19-.31-1.39-2.07-2.33-1.99-1.05-3.03-2.04-3.03-4.08s.75-4.01,4.18-4.01,4.13,1.82,4.13,4.35v.37h-3.23v-.48c0-1.39-.1-2.02-.9-2.02s-.9.63-.9,1.34c0,1.19.32,1.5,1.89,2.33,1.99,1.05,3.21,2.14,3.21,4.18Z"/>
    <path class="cls-3" d="M155.75,91.56h3.4v2.63h-6.63v-13.6h3.23v10.96Z"/>
    <path class="cls-3" d="M168.79,85.44v3.91c0,3.35-1,5.1-4.42,5.1s-4.42-1.75-4.42-5.1v-3.91c0-3.35.99-5.1,4.42-5.1s4.42,1.75,4.42,5.1ZM165.51,90.42v-6c0-1.22-.34-1.82-1.14-1.82s-1.14.59-1.14,1.82v6c0,1.22.36,1.82,1.14,1.82s1.14-.59,1.14-1.82Z"/>
    <path class="cls-3" d="M184.06,80.59l-1.28,13.6-.02-.02v.02h-4.64l-1.34-9.5-1.34,9.5h-4.56v-.02l-.02.02-1.28-13.6h3.06l1.07,10.86,1.46-10.86h3.45l1.46,10.86,1.07-10.86h2.89Z"/>
    <path class="cls-3" d="M191.54,83.31h-3.4v2.48h3.06v2.63h-3.06v3.13h3.4v2.63h-6.63v-13.6h6.63v2.72Z"/>
    <path class="cls-3" d="M200.8,90.42c0,2.19-.75,4.03-4.18,4.03s-4.35-1.61-4.35-4.37v-.73h3.28l.02.9c0,1.56.27,1.99,1.05,1.99s.9-.59.9-1.48c0-1.19-.31-1.39-2.07-2.33-1.99-1.05-3.03-2.04-3.03-4.08s.75-4.01,4.18-4.01,4.13,1.82,4.13,4.35v.37h-3.23v-.48c0-1.39-.1-2.02-.9-2.02s-.9.63-.9,1.34c0,1.19.32,1.5,1.89,2.33,1.99,1.05,3.21,2.14,3.21,4.18Z"/>
  </g>
  <g>
    <path class="cls-3" d="M201.37,80.59h7.14v2.72h-1.97v10.88h-3.23v-10.88h-1.94v-2.72Z"/>
    <path class="cls-3" d="M220.49,83.31h-3.4v2.52h3.06v2.63h-3.06v5.73h-3.23v-13.6h6.63v2.72Z"/>
    <path class="cls-3" d="M230.13,85.44v3.91c0,3.35-1,5.1-4.42,5.1s-4.42-1.75-4.42-5.1v-3.91c0-3.35.99-5.1,4.42-5.1s4.42,1.75,4.42,5.1ZM226.85,90.42v-6c0-1.22-.34-1.82-1.14-1.82s-1.14.59-1.14,1.82v6c0,1.22.36,1.82,1.14,1.82s1.14-.59,1.14-1.82Z"/>
    <path class="cls-3" d="M240.06,85.44v3.91c0,3.35-1,5.1-4.42,5.1s-4.42-1.75-4.42-5.1v-3.91c0-3.35.99-5.1,4.42-5.1s4.42,1.75,4.42,5.1ZM236.78,90.42v-6c0-1.22-.34-1.82-1.14-1.82s-1.14.59-1.14,1.82v6c0,1.22.36,1.82,1.14,1.82s1.14-.59,1.14-1.82Z"/>
    <path class="cls-3" d="M249.99,85.69v3.57c0,3.35-.83,4.93-4.25,4.93h-4.54v-13.6h4.37c3.42,0,4.42,1.75,4.42,5.1ZM245.57,91.73c.8,0,1.14-.59,1.14-1.82v-5.12c0-1.22-.34-1.82-1.14-1.82h-1.14v8.75h1.14Z"/>
    <path class="cls-3" d="M264.08,85.3c0,3.11-1.34,4.27-3.57,4.27h-1.82v4.62h-3.14v-13.6h4.11c3.42,0,4.42,1.36,4.42,4.71ZM259.66,87.02c.97,0,1.14-.32,1.14-1.55v-.68c0-1.22-.34-1.82-1.14-1.82h-.97v4.05h.97Z"/>
    <path class="cls-3" d="M273.29,91.3c0,1.82,0,2.6.25,2.89h-3.03c-.25-.29-.25-1.07-.25-2.89v-1.33c0-1.05-.34-1.55-1.22-1.55h-.8v5.76h-3.14v-13.6h4.45c3.25,0,3.99,1.26,3.99,3.59,0,1.34-.46,2.45-1.43,2.82.99.25,1.17,1.21,1.17,2.16v2.14ZM268.24,85.79h1.05c.8,0,1.14-.27,1.14-1.43s-.34-1.41-1.14-1.41h-1.05v2.84Z"/>
    <path class="cls-3" d="M274.65,80.59h3.23v13.6h-3.23v-13.6Z"/>
    <path class="cls-3" d="M287.86,85.81h-3.28v-1.39c0-1.22-.34-1.82-1.14-1.82s-1.14.59-1.14,1.82v6c0,1.22.36,1.82,1.14,1.82s1.12-.42,1.12-2.16l.02-1.34h3.28v1.17c0,2.75-1,4.54-4.42,4.54s-4.42-1.84-4.42-4.93v-4.25c0-3.01.99-4.93,4.42-4.93s4.42,2.09,4.42,4.59v.88Z"/>
    <path class="cls-3" d="M295.63,83.31h-3.4v2.48h3.06v2.63h-3.06v3.13h3.4v2.63h-6.63v-13.6h6.63v2.72Z"/>
    <path class="cls-3" d="M304.89,90.42c0,2.19-.75,4.03-4.18,4.03s-4.35-1.61-4.35-4.37v-.73h3.28l.02.9c0,1.56.27,1.99,1.05,1.99s.9-.59.9-1.48c0-1.19-.31-1.39-2.07-2.33-1.99-1.05-3.03-2.04-3.03-4.08s.75-4.01,4.18-4.01,4.13,1.82,4.13,4.35v.37h-3.23v-.48c0-1.39-.1-2.02-.9-2.02s-.9.63-.9,1.34c0,1.19.32,1.5,1.89,2.33,1.99,1.05,3.21,2.14,3.21,4.18Z"/>
  </g>
</svg>